HIERARCHY
ROOT Hips
{
	OFFSET 0.000000 0.000000 0.000000
	CHANNELS 6 Xposition Yposition Zposition Zrotation Yrotation Xrotation 
	JOINT LHipJoint
	{
		OFFSET 0.000000 0.000000 0.000000
		CHANNELS 3 Zrotation Yrotation Xrotation
		JOINT LeftUpLeg
		{
			OFFSET 1.363060 -1.794630 0.839290
			CHANNELS 3 Zrotation Yrotation Xrotation
			JOINT LeftLeg
			{
				OFFSET 2.448110 -6.726130 0.000000
				CHANNELS 3 Zrotation Yrotation Xrotation
				JOINT LeftFoot
				{
					OFFSET 2.562200 -7.039590 0.000000
					CHANNELS 3 Zrotation Yrotation Xrotation
					JOINT LeftToeBase
					{
						OFFSET 0.157640 -0.433110 2.322550
						CHANNELS 3 Zrotation Yrotation Xrotation
						End Site
						{
							OFFSET 0.000000 0.000000 0.000000
						}
					}
				}
			}
		}
	}
	JOINT RHipJoint
	{
		OFFSET 0.000000 0.000000 0.000000
		CHANNELS 3 Zrotation Yrotation Xrotation
		JOINT RightUpLeg
		{
			OFFSET -1.305520 -1.794630 0.839290
			CHANNELS 3 Zrotation Yrotation Xrotation
			JOINT RightLeg
			{
				OFFSET -2.542530 -6.985550 0.000000
				CHANNELS 3 Zrotation Yrotation Xrotation
				JOINT RightFoot
				{
					OFFSET -2.568260 -7.056230 0.000000
					CHANNELS 3 Zrotation Yrotation Xrotation
					JOINT RightToeBase
					{
						OFFSET -0.164730 -0.452590 2.363150
						CHANNELS 3 Zrotation Yrotation Xrotation
						End Site
						{
							OFFSET 0.000000 0.000000 0.000000
						}
					}
				}
			}
		}
	}
	JOINT LowerBack
	{
		OFFSET 0.000000 0.000000 0.000000
		CHANNELS 3 Zrotation Yrotation Xrotation
		JOINT Spine
		{
			OFFSET 0.028270 2.035590 -0.193380
			CHANNELS 3 Zrotation Yrotation Xrotation
			JOINT Spine1
			{
				OFFSET 0.056720 2.048850 -0.042750
				CHANNELS 3 Zrotation Yrotation Xrotation
				JOINT Neck
				{
					OFFSET 0.000000 0.000000 0.000000
					CHANNELS 3 Zrotation Yrotation Xrotation
					JOINT Neck1
					{
						OFFSET -0.054170 1.746240 0.172020
						CHANNELS 3 Zrotation Yrotation Xrotation
						JOINT Head
						{
							OFFSET 0.104070 1.761360 -0.123970
							CHANNELS 3 Zrotation Yrotation Xrotation
							End Site
							{
								OFFSET 0.000000 0.000000 0.000000
							}
						}
					}
				}
				JOINT LeftShoulder
				{
					OFFSET 0.000000 0.000000 0.000000
					CHANNELS 3 Zrotation Yrotation Xrotation
					JOINT LeftArm
					{
						OFFSET 3.362410 1.200890 -0.311210
						CHANNELS 3 Zrotation Yrotation Xrotation
						JOINT LeftForeArm
						{
							OFFSET 4.983000 -0.000000 -0.000000
							CHANNELS 3 Zrotation Yrotation Xrotation
							JOINT LeftHand
							{
								OFFSET 3.483560 -0.000000 -0.000000
								CHANNELS 3 Zrotation Yrotation Xrotation
								JOINT LeftFingerBase
								{
									OFFSET 0.000000 0.000000 0.000000
									CHANNELS 3 Zrotation Yrotation Xrotation
									JOINT LeftHandIndex1
									{
										OFFSET 0.715260 -0.000000 -0.000000
										CHANNELS 3 Zrotation Yrotation Xrotation
										End Site
										{
											OFFSET 0.000000 0.000000 0.000000
										}
									}
								}
								JOINT LThumb
								{
									OFFSET 0.000000 0.000000 0.000000
									CHANNELS 3 Zrotation Yrotation Xrotation
									End Site
									{
										OFFSET 0.000000 0.000000 0.000000
									}
								}
							}
						}
					}
				}
				JOINT RightShoulder
				{
					OFFSET 0.000000 0.000000 0.000000
					CHANNELS 3 Zrotation Yrotation Xrotation
					JOINT RightArm
					{
						OFFSET -3.136600 1.374050 -0.404650
						CHANNELS 3 Zrotation Yrotation Xrotation
						JOINT RightForeArm
						{
							OFFSET -5.241900 -0.000000 -0.000000
							CHANNELS 3 Zrotation Yrotation Xrotation
							JOINT RightHand
							{
								OFFSET -3.444170 -0.000000 -0.000000
								CHANNELS 3 Zrotation Yrotation Xrotation
								JOINT RightFingerBase
								{
									OFFSET 0.000000 0.000000 0.000000
									CHANNELS 3 Zrotation Yrotation Xrotation
									JOINT RightHandIndex1
									{
										OFFSET -0.622530 -0.000000 -0.000000
										CHANNELS 3 Zrotation Yrotation Xrotation
										End Site
										{
											OFFSET 0.000000 0.000000 0.000000
										}
									}
								}
								JOINT RThumb
								{
									OFFSET 0.000000 0.000000 0.000000
									CHANNELS 3 Zrotation Yrotation Xrotation
									End Site
									{
										OFFSET 0.000000 0.000000 0.000000
									}
								}
							}
						}
					}
				}
			}
		}
	}
}
MOTION
Frames: 8
Frame Time: 0.008333
-3.730630 16.854444 0.661535 -165.978631 79.113866 -139.777300 -12.187627 0.657861 -2.061313 -5.855701 -3.747138 -15.487615 -0.743405 1.728983 36.233952 0.991920 5.359357 -5.222678 0.156700 -0.000001 -60.467200 6.439730 -0.047856 1.745277 6.808845 12.673703 -45.129697 2.926779 -0.570121 16.248189 0.647123 3.396607 4.726504 0.194300 0.000000 -41.239900 7.500139 -0.825087 3.753191 0.307855 -1.128703 -2.083276 -7.878049 -1.236238 0.672452 5.932828 4.665698 4.042040 -5.631882 -0.442328 2.677006 0.000000 0.000000 0.000000 -7.241427 -5.485546 1.945111 -62.583116 -24.202183 7.137613 -2.835195 -32.978790 -0.020700 8.731390 -2.968037 -0.243214 -0.114250 0.185853 0.000000 0.000000 0.000000 0.000000 0.000000 0.000000 0.000000 20.276924 0.732041 0.447584 63.665825 9.869838 -10.238765 3.424004 16.554653 0.011434 1.250515 7.341492 0.076865 0.071265 -0.083214 -0.000000 0.000000 0.000000 0.000000 0.000000 0.000000 0.000000 
-3.618885 16.876250 0.672257 -167.479607 78.362945 -141.251226 -12.290393 0.655375 -2.127437 -5.653897 -3.350336 -16.414347 -0.614719 1.868239 37.928764 0.998551 5.450271 -3.826861 0.285100 0.000000 -59.982700 6.451605 -0.058119 1.610796 7.047288 12.238768 -44.799000 2.929231 -0.600008 16.772070 0.576083 3.136127 3.895616 0.110400 0.000001 -40.711500 7.497099 -0.930154 3.944298 0.321971 -1.218810 -2.067453 -7.812598 -1.335101 0.609037 6.243180 4.990857 4.146408 -5.578256 -0.439896 2.711040 0.000000 0.000000 0.000000 -6.767938 -5.813087 1.939433 -63.457162 -23.629127 6.597916 -2.782885 -31.296919 -0.021802 9.112289 -2.862838 -0.244794 -0.108139 0.180828 0.000000 0.000000 0.000000 0.000000 0.000000 0.000000 0.000000 20.383270 0.940816 0.476054 63.729141 10.592140 -10.880062 3.428217 15.447715 0.011107 1.202986 7.130717 0.071555 0.071694 -0.081594 -0.000000 0.000000 0.000000 0.000000 0.000000 0.000000 0.000000 
-3.508512 16.897556 0.684431 -169.086543 77.557510 -142.841466 -12.382784 0.648328 -2.190890 -5.504106 -2.949712 -17.363684 -0.493215 2.000248 39.632852 1.024784 5.628934 -2.570452 0.404900 0.000001 -58.511301 6.479117 -0.061977 1.475466 7.230989 11.743452 -44.425834 2.920811 -0.624049 17.195752 0.496745 2.813872 3.213837 0.023700 -0.000000 -40.237700 7.452356 -1.046638 4.133016 0.328589 -1.319397 -2.047751 -7.742154 -1.443118 0.558835 6.573560 5.268148 4.255538 -5.515820 -0.437140 2.746831 0.000000 0.000000 0.000000 -6.291711 -6.175094 1.938032 -64.249275 -23.079351 6.237281 -2.740138 -29.631241 -0.022482 9.371067 -2.708987 -0.238463 -0.102772 0.175844 0.000000 0.000000 0.000000 0.000000 0.000000 0.000000 0.000000 20.469685 1.104274 0.497942 63.822541 11.355316 -11.487293 3.426168 14.371726 0.010740 1.122364 6.914520 0.064446 0.072227 -0.079999 -0.000000 0.000000 0.000000 0.000000 0.000000 0.000000 0.000000 
-3.399345 16.918000 0.696931 -170.678608 76.703833 -144.422420 -12.468326 0.636175 -2.250521 -5.393006 -2.542911 -18.333401 -0.381439 2.125693 41.336378 1.070977 5.918700 -1.517174 0.519100 -0.000001 -56.012800 6.515065 -0.062077 1.343624 7.375453 11.208749 -44.027346 2.902992 -0.642151 17.538349 0.407627 2.419398 2.659353 -0.070100 0.000000 -39.809400 7.389096 -1.166316 4.312477 0.332181 -1.423905 -2.027147 -7.667093 -1.554065 0.516837 6.912646 5.522992 4.377609 -5.444553 -0.434087 2.786404 0.000000 0.000000 0.000000 -5.845373 -6.569071 1.943127 -64.946826 -22.542220 6.081533 -2.711076 -28.015612 -0.022668 9.467675 -2.492686 -0.222322 -0.098201 0.170898 0.000000 0.000000 0.000000 0.000000 0.000000 0.000000 0.000000 20.522858 1.253237 0.513549 63.941699 12.105710 -12.082700 3.418012 13.383930 0.010334 1.030452 6.686658 0.056838 0.072669 -0.078471 -0.000000 0.000000 0.000000 0.000000 0.000000 0.000000 0.000000 
-3.291371 16.937392 0.708714 -172.158037 75.810668 -145.892780 -12.549712 0.617784 -2.307417 -5.306220 -2.124472 -19.319774 -0.280357 2.245728 43.023259 1.136627 6.337170 -0.696549 0.632600 -0.000000 -52.715499 6.552700 -0.060712 1.217517 7.499032 10.655707 -43.616348 2.878357 -0.654213 17.817988 0.307911 1.951279 2.199864 -0.172600 -0.000000 -39.427500 7.327276 -1.281681 4.481147 0.336156 -1.525859 -2.003678 -7.589605 -1.661186 0.491340 7.248362 5.719882 4.499218 -5.369065 -0.430889 2.825601 0.000000 0.000000 0.000000 -5.449724 -6.971151 1.949566 -65.552148 -22.043877 6.151307 -2.699328 -26.460209 -0.022290 9.370506 -2.217181 -0.196767 -0.094433 0.165946 0.000000 0.000000 0.000000 0.000000 0.000000 0.000000 0.000000 20.550745 1.352608 0.522101 64.062608 12.884944 -12.559661 3.407259 12.477699 0.009930 0.913157 6.473321 0.048328 0.073231 -0.077017 -0.000000 0.000000 0.000000 0.000000 0.000000 0.000000 0.000000 
-3.184713 16.955777 0.718947 -173.460324 74.890139 -147.186603 -12.628719 0.592696 -2.362844 -5.231013 -1.687992 -20.320108 -0.191345 2.362066 44.684969 1.219748 6.886438 -0.142853 0.745200 0.000000 -48.651801 6.586527 -0.060132 1.099201 7.620095 10.102741 -43.201924 2.850262 -0.660089 18.050926 0.198044 1.418435 1.798318 -0.283000 0.000001 -39.093200 7.285456 -1.386041 4.636857 0.344033 -1.619373 -1.979639 -7.510329 -1.759026 0.476180 7.573217 5.883231 4.628512 -5.290004 -0.427602 2.866467 0.000000 0.000000 0.000000 -5.123215 -7.384296 1.958743 -66.063431 -21.564025 6.440278 -2.705328 -25.003253 -0.021344 9.057129 -1.873637 -0.162301 -0.091293 0.160923 0.000000 0.000000 0.000000 0.000000 0.000000 0.000000 0.000000 20.546827 1.429456 0.524713 64.179687 13.653341 -12.934881 3.395018 11.693672 0.009538 0.795290 6.272177 0.040221 0.073724 -0.075672 -0.000000 0.000000 0.000000 0.000000 0.000000 0.000000 0.000000 
-3.079487 16.973335 0.727064 -174.551456 73.955731 -148.269071 -12.706534 0.560275 -2.418645 -5.156746 -1.227851 -21.330076 -0.114188 2.476163 46.308849 1.318215 7.559371 0.145706 0.855100 -0.000000 -44.107400 6.612309 -0.062325 0.989118 7.755283 9.564669 -42.788922 2.822222 -0.659907 18.250479 0.079525 0.837030 1.420095 -0.398300 0.000000 -38.811500 7.275826 -1.474422 4.780461 0.357920 -1.699733 -1.954919 -7.430628 -1.842997 0.471292 7.881648 6.011290 4.763790 -5.209883 -0.424329 2.908262 0.000000 0.000000 0.000000 -4.874276 -7.800736 1.969085 -66.485694 -21.099988 6.932418 -2.728621 -23.669714 -0.019855 8.520023 -1.466132 -0.121623 -0.088598 0.155757 0.000000 0.000000 0.000000 0.000000 0.000000 0.000000 0.000000 20.515763 1.481967 0.521886 64.280347 14.416127 -13.174971 3.383555 11.037457 0.009184 0.684737 6.095702 0.033115 0.074137 -0.074456 -0.000000 0.000000 0.000000 0.000000 0.000000 0.000000 0.000000 
-2.975916 16.990343 0.732782 -175.426228 73.021758 -149.135847 -12.783656 0.519844 -2.476699 -5.077470 -0.742254 -22.342372 -0.046992 2.588810 47.877570 1.430367 8.342555 0.213937 0.961000 0.000001 -39.532300 6.627331 -0.068472 0.885768 7.917343 9.050927 -42.378248 2.797553 -0.654130 18.426159 -0.044956 0.229472 1.037170 -0.513201 -0.000000 -38.584200 7.303315 -1.544082 4.915911 0.378511 -1.763921 -1.927853 -7.352179 -1.910030 0.479873 8.171121 6.101671 4.899179 -5.131107 -0.421117 2.949041 0.000000 0.000000 0.000000 -4.707587 -8.191455 1.979084 -66.826097 -20.676888 7.618900 -2.769304 -22.461152 -0.017887 7.767951 -1.009285 -0.079135 -0.086270 0.150437 0.000000 0.000000 0.000000 0.000000 0.000000 0.000000 0.000000 20.465609 1.507994 0.512620 64.353678 15.186584 -13.250483 3.374730 10.508551 0.008892 0.588384 5.955699 0.027310 0.074457 -0.073366 -0.000000 0.000000 0.000000 0.000000 0.000000 0.000000 0.000000 
